<?xml version="1.0" encoding="UTF-8"?><svg id="a" xmlns="http://www.w3.org/2000/svg" viewBox="0 0 247.75 74"><path d="M92.09,67.51h-12v-26.48h-7.3v32.4h19.3v-5.92ZM122.41,41.03h-7.3v19.07c0,5.06-2.01,7.59-6.03,7.59s-6.15-2.62-6.15-7.86v-18.8h-7.32v18.71c0,9.5,4.4,14.26,13.2,14.26s13.6-4.87,13.6-14.6v-18.37ZM153.75,67.51h-16.29l16.25-22.39v-4.09h-24.85v5.94h15.41l-16.61,22.26v4.2h26.1v-5.92ZM179.75,67.51h-12.13v-7.41h10.6v-5.92h-10.6v-7.21h11.39v-5.94h-18.69v32.4h19.43v-5.92ZM208.32,63.85c-.32-.5-.67-1-1.05-1.52s-.79-1.01-1.21-1.46c-.42-.45-.86-.85-1.31-1.19-.45-.34-.92-.58-1.4-.73v-.09c1.1-.32,2.1-.75,2.99-1.31.9-.56,1.66-1.22,2.29-1.99.63-.77,1.12-1.63,1.47-2.59.35-.96.52-2,.52-3.13,0-5.87-3.93-8.81-11.79-8.81h-11.57v32.4h7.3v-12.4h1.97c.45,0,.87.09,1.25.28.38.19.75.46,1.11.81.35.35.7.78,1.05,1.28.35.5.71,1.06,1.08,1.69l5.04,8.34h8.38l-6.12-9.58ZM197.86,46.5c3.39,0,5.08,1.42,5.08,4.25,0,1.36-.48,2.49-1.45,3.41-.95.9-2.21,1.36-3.77,1.36h-3.16v-9.02h3.3ZM247.75,41.03h-6.89v17.92c0,2.21.06,3.7.18,4.45h-.09c-.5-.87-1.04-1.76-1.63-2.64l-12.86-19.73h-7.86v32.4h6.89v-17.8c0-2.35-.06-4.1-.18-5.24h.09c.3.6.84,1.5,1.63,2.69l13.35,20.36h7.37v-32.4" style="fill:#000;"/><path d="M80.48,16.09L94.38.54h-4.72l-12.11,14.12c-.36.41-.65.78-.86,1.11h-.09V.54h-3.8v32.4h3.8v-15.95h.09c.1.2.39.57.86,1.13l12.52,14.82h5.29l-14.87-16.86ZM112.79.54h-3.93l-12.43,32.4h4.23l3.23-9.08h13.74l3.43,9.08h4.2L112.79.54ZM105.16,20.45l5.04-13.81c.2-.53.37-1.25.52-2.17h.09c.17.99.33,1.72.5,2.17l5.08,13.81h-11.23ZM156.15.54h-3.8v22.82c0,2.24.07,3.83.23,4.77h-.09c-.2-.39-.63-1.11-1.31-2.17L134.96.54h-4.93v32.4h3.8V9.54c0-2.27-.06-3.76-.18-4.45h.14c.27.71.62,1.39,1.04,2.03l16.67,25.83h4.65V.54ZM183.4.54h-22.48v3.43h9.33v28.97h3.8V3.98h9.35V.54ZM211.06,28.88c2.8-3.07,4.2-7.25,4.2-12.54,0-4.87-1.37-8.8-4.1-11.82-2.73-3.01-6.34-4.52-10.81-4.52-4.85,0-8.68,1.55-11.5,4.65-2.82,3.1-4.23,7.26-4.23,12.47,0,4.85,1.38,8.79,4.15,11.82,2.76,3.03,6.44,4.54,11.04,4.54s8.45-1.54,11.25-4.61ZM208.3,6.94c1.99,2.34,2.98,5.64,2.98,9.92s-1.02,7.42-3.07,9.74c-2.05,2.32-4.85,3.48-8.41,3.48-3.33,0-6.03-1.22-8.1-3.65-2.07-2.43-3.11-5.64-3.11-9.64s1.06-7.22,3.19-9.67c2.12-2.46,4.89-3.68,8.29-3.68s6.24,1.17,8.22,3.5ZM247.75.54h-3.8v22.82c0,2.24.07,3.83.23,4.77h-.09c-.2-.39-.63-1.11-1.31-2.17L226.56.54h-4.93v32.4h3.8V9.54c0-2.27-.06-3.76-.18-4.45h.14c.27.71.62,1.39,1.04,2.03l16.67,25.83h4.65V.54" style="fill:#000;"/><path d="M0,.57v72.8h36.4V.57H0" style="fill:#009fe3;"/></svg>